<svg width="201" height="42" viewBox="0 0 201 42" fill="none" xmlns="http://www.w3.org/2000/svg">
<rect x="14" width="14" height="14" fill="white"/>
<rect y="14" width="14" height="14" fill="white"/>
<rect x="14" y="28" width="14" height="14" fill="white"/>
<rect x="28" y="28" width="14" height="14" fill="white"/>
<rect x="28" y="14" width="14" height="14" fill="white"/>
<path d="M64.252 21.5918H57.7129L57.6777 18.1816H63.2852C64.2461 18.1816 65.0488 18.0469 65.6934 17.7773C66.3379 17.5078 66.8242 17.1152 67.1523 16.5996C67.4922 16.084 67.6621 15.457 67.6621 14.7188C67.6621 13.8984 67.5039 13.2305 67.1875 12.7148C66.8828 12.1992 66.4023 11.8242 65.7461 11.5898C65.0898 11.3438 64.2578 11.2207 63.25 11.2207H59.2773V33H54.4434V7.40625H63.25C64.7031 7.40625 65.998 7.54688 67.1348 7.82812C68.2832 8.09766 69.2559 8.51953 70.0527 9.09375C70.8496 9.66797 71.4531 10.3887 71.8633 11.2559C72.2852 12.123 72.4961 13.1543 72.4961 14.3496C72.4961 15.4043 72.25 16.377 71.7578 17.2676C71.2773 18.1465 70.5332 18.8613 69.5254 19.4121C68.5293 19.9629 67.2637 20.2793 65.7285 20.3613L64.252 21.5918ZM64.041 33H56.2891L58.3105 29.2031H64.041C65.002 29.2031 65.793 29.0449 66.4141 28.7285C67.0469 28.4121 67.5156 27.9785 67.8203 27.4277C68.1367 26.8652 68.2949 26.2207 68.2949 25.4941C68.2949 24.6973 68.1543 24.0059 67.873 23.4199C67.6035 22.834 67.1699 22.3828 66.5723 22.0664C65.9863 21.75 65.2129 21.5918 64.252 21.5918H59.2246L59.2598 18.1816H65.6582L66.7656 19.5C68.2422 19.5117 69.4434 19.8047 70.3691 20.3789C71.3066 20.9531 71.998 21.6914 72.4434 22.5938C72.8887 23.4961 73.1113 24.4688 73.1113 25.5117C73.1113 27.1523 72.7539 28.5293 72.0391 29.6426C71.3359 30.7559 70.3047 31.5938 68.9453 32.1562C67.5977 32.7188 65.9629 33 64.041 33ZM81.8652 6V33H77.207V6H81.8652ZM97.6152 28.4824V13.9805H102.291V33H97.8965L97.6152 28.4824ZM98.2129 24.5449L99.6543 24.5098C99.6543 25.7871 99.5137 26.9648 99.2324 28.043C98.9512 29.1211 98.5117 30.0586 97.9141 30.8555C97.3281 31.6406 96.584 32.2559 95.6816 32.7012C94.7793 33.1348 93.7129 33.3516 92.4824 33.3516C91.5449 33.3516 90.6895 33.2227 89.916 32.9648C89.1426 32.6953 88.4746 32.2793 87.9121 31.7168C87.3613 31.1426 86.9336 30.4102 86.6289 29.5195C86.3242 28.6172 86.1719 27.5332 86.1719 26.2676V13.9805H90.8125V26.3027C90.8125 26.9355 90.8828 27.4629 91.0234 27.8848C91.1758 28.3066 91.3809 28.6523 91.6387 28.9219C91.9082 29.1797 92.2188 29.3672 92.5703 29.4844C92.9336 29.5898 93.3203 29.6426 93.7305 29.6426C94.8555 29.6426 95.7402 29.4199 96.3848 28.9746C97.041 28.5176 97.5098 27.9082 97.791 27.1465C98.0723 26.373 98.2129 25.5059 98.2129 24.5449ZM114.947 33.3516C113.506 33.3516 112.211 33.1172 111.062 32.6484C109.914 32.1797 108.936 31.5293 108.127 30.6973C107.33 29.8535 106.715 28.875 106.281 27.7617C105.859 26.6367 105.648 25.4297 105.648 24.1406V23.4375C105.648 21.9727 105.859 20.6426 106.281 19.4473C106.703 18.2402 107.301 17.2031 108.074 16.3359C108.848 15.4688 109.773 14.8008 110.852 14.332C111.93 13.8633 113.119 13.6289 114.42 13.6289C115.768 13.6289 116.957 13.8574 117.988 14.3145C119.02 14.7598 119.881 15.3926 120.572 16.2129C121.264 17.0332 121.785 18.0176 122.137 19.166C122.488 20.3027 122.664 21.5625 122.664 22.9453V24.8965H107.758V21.6973H118.094V21.3457C118.07 20.6074 117.93 19.9336 117.672 19.3242C117.414 18.7031 117.016 18.2109 116.477 17.8477C115.938 17.4727 115.24 17.2852 114.385 17.2852C113.693 17.2852 113.09 17.4375 112.574 17.7422C112.07 18.0352 111.648 18.457 111.309 19.0078C110.98 19.5469 110.734 20.1914 110.57 20.9414C110.406 21.6914 110.324 22.5234 110.324 23.4375V24.1406C110.324 24.9375 110.43 25.6758 110.641 26.3555C110.863 27.0352 111.186 27.627 111.607 28.1309C112.041 28.623 112.557 29.0098 113.154 29.291C113.764 29.5605 114.455 29.6953 115.229 29.6953C116.201 29.6953 117.08 29.5078 117.865 29.1328C118.662 28.7461 119.354 28.1777 119.939 27.4277L122.277 29.8535C121.879 30.4395 121.34 31.002 120.66 31.541C119.992 32.0801 119.184 32.5195 118.234 32.8594C117.285 33.1875 116.189 33.3516 114.947 33.3516ZM130.416 17.6367V40.3125H125.758V13.9805H130.064L130.416 17.6367ZM142.633 23.2969V23.666C142.633 25.0488 142.469 26.332 142.141 27.5156C141.824 28.6875 141.355 29.7129 140.734 30.5918C140.113 31.459 139.34 32.1387 138.414 32.6309C137.5 33.1113 136.445 33.3516 135.25 33.3516C134.078 33.3516 133.059 33.1289 132.191 32.6836C131.324 32.2266 130.592 31.582 129.994 30.75C129.396 29.918 128.916 28.9512 128.553 27.8496C128.201 26.7363 127.938 25.5234 127.762 24.2109V23.0332C127.938 21.6387 128.201 20.373 128.553 19.2363C128.916 18.0879 129.396 17.0977 129.994 16.2656C130.592 15.4219 131.318 14.7715 132.174 14.3145C133.041 13.8574 134.055 13.6289 135.215 13.6289C136.422 13.6289 137.482 13.8574 138.396 14.3145C139.322 14.7715 140.102 15.4277 140.734 16.2832C141.367 17.1387 141.842 18.1582 142.158 19.3418C142.475 20.5254 142.633 21.8438 142.633 23.2969ZM137.975 23.666V23.2969C137.975 22.4531 137.898 21.6738 137.746 20.959C137.594 20.2324 137.359 19.5996 137.043 19.0605C136.727 18.5098 136.316 18.082 135.812 17.7773C135.309 17.4727 134.699 17.3203 133.984 17.3203C133.27 17.3203 132.654 17.4375 132.139 17.6719C131.623 17.9062 131.201 18.2402 130.873 18.6738C130.545 19.1074 130.287 19.623 130.1 20.2207C129.924 20.8066 129.807 21.457 129.748 22.1719V25.0898C129.854 25.957 130.059 26.7363 130.363 27.4277C130.668 28.1191 131.113 28.6699 131.699 29.0801C132.297 29.4902 133.07 29.6953 134.02 29.6953C134.734 29.6953 135.344 29.5371 135.848 29.2207C136.352 28.9043 136.762 28.4707 137.078 27.9199C137.395 27.3574 137.623 26.7129 137.764 25.9863C137.904 25.2598 137.975 24.4863 137.975 23.666ZM150.666 17.8652V33H146.025V13.9805H150.42L150.666 17.8652ZM156.449 13.8574L156.379 18.1816C156.121 18.1348 155.828 18.0996 155.5 18.0762C155.184 18.0527 154.885 18.041 154.604 18.041C153.889 18.041 153.262 18.1406 152.723 18.3398C152.184 18.5273 151.732 18.8027 151.369 19.166C151.018 19.5293 150.748 19.9746 150.561 20.502C150.373 21.0176 150.268 21.6035 150.244 22.2598L149.242 22.1367C149.242 20.9297 149.365 19.8105 149.611 18.7793C149.857 17.748 150.215 16.8457 150.684 16.0723C151.152 15.2988 151.738 14.7012 152.441 14.2793C153.156 13.8457 153.977 13.6289 154.902 13.6289C155.16 13.6289 155.436 13.6523 155.729 13.6992C156.033 13.7344 156.273 13.7871 156.449 13.8574ZM163.92 13.9805V33H159.262V13.9805H163.92ZM158.945 9.00586C158.945 8.31445 159.18 7.74023 159.648 7.2832C160.129 6.82617 160.773 6.59766 161.582 6.59766C162.391 6.59766 163.029 6.82617 163.498 7.2832C163.979 7.74023 164.219 8.31445 164.219 9.00586C164.219 9.68555 163.979 10.2539 163.498 10.7109C163.029 11.168 162.391 11.3965 161.582 11.3965C160.773 11.3965 160.129 11.168 159.648 10.7109C159.18 10.2539 158.945 9.68555 158.945 9.00586ZM172.902 18.041V33H168.262V13.9805H172.621L172.902 18.041ZM172.164 22.8047H170.793C170.805 21.4219 170.992 20.168 171.355 19.043C171.719 17.918 172.229 16.9512 172.885 16.1426C173.553 15.334 174.344 14.7129 175.258 14.2793C176.172 13.8457 177.191 13.6289 178.316 13.6289C179.23 13.6289 180.057 13.7578 180.795 14.0156C181.533 14.2734 182.166 14.6836 182.693 15.2461C183.232 15.8086 183.643 16.5469 183.924 17.4609C184.217 18.3633 184.363 19.4766 184.363 20.8008V33H179.688V20.7656C179.688 19.8984 179.559 19.2129 179.301 18.709C179.055 18.2051 178.691 17.8477 178.211 17.6367C177.742 17.4258 177.162 17.3203 176.471 17.3203C175.756 17.3203 175.129 17.4668 174.59 17.7598C174.062 18.041 173.617 18.4336 173.254 18.9375C172.902 19.4414 172.633 20.0215 172.445 20.6777C172.258 21.334 172.164 22.043 172.164 22.8047ZM197.459 13.9805V17.3203H186.561V13.9805H197.459ZM189.479 9.30469H194.137V27.5156C194.137 28.0781 194.213 28.5117 194.365 28.8164C194.518 29.1211 194.746 29.3262 195.051 29.4316C195.355 29.5371 195.719 29.5898 196.141 29.5898C196.445 29.5898 196.727 29.5723 196.984 29.5371C197.242 29.502 197.459 29.4668 197.635 29.4316L197.652 32.9121C197.266 33.041 196.826 33.1465 196.334 33.2285C195.854 33.3105 195.309 33.3516 194.699 33.3516C193.656 33.3516 192.742 33.1758 191.957 32.8242C191.172 32.4609 190.562 31.8809 190.129 31.084C189.695 30.2754 189.479 29.209 189.479 27.8848V9.30469Z" fill="white"/>
</svg>
